<svg width="1282" height="360" viewBox="0 0 1282 360" fill="none" xmlns="http://www.w3.org/2000/svg">
<path d="M172.91 71.0008C191.551 69.2415 209.815 72.8559 226.625 80.9174C242.844 88.6959 251.951 98.6068 261.382 113.488C255.659 116.977 248.975 121.632 243.296 125.386C210.597 78.6497 136.464 82.6303 113.987 136.056C87.7744 198.358 144.92 261.338 211.01 235.422C225.467 229.059 233.471 221.101 243.375 209.146L261.397 221.757C243.323 247.227 223.7 259.079 191.986 262.752C101.594 273.221 52.5695 171.897 107.959 103.622C123.835 84.0522 147.487 73.1057 172.91 71.0008Z" fill="#1E285C"/>
<path d="M535.395 115.619C569.554 112.642 599.65 137.943 602.594 172.111C605.539 206.279 580.214 236.357 546.049 239.27C511.93 242.178 481.906 216.89 478.966 182.767C476.026 148.646 501.281 118.592 535.395 115.619ZM548.454 226.673C575.544 222.416 594.075 197.028 589.875 169.925C585.674 142.822 560.329 124.235 533.222 128.381C506.036 132.538 487.387 157.978 491.6 185.16C495.812 212.342 521.286 230.942 548.454 226.673Z" fill="#1E285C"/>
<path d="M230.521 46.6301C235.466 47.5028 243.175 51.5069 247.568 54.059C266.323 64.954 280.32 76.834 292.835 94.6756C313.124 123.913 321.069 159.973 314.946 195.032C310.164 222.077 301.475 236.129 284.696 256.175C261.773 274.721 248.263 285.468 217.066 290.797C214.043 291.313 202.584 292.529 199.906 292.181C199.672 292.152 199.44 292.111 199.211 292.058C175.339 288.065 159.422 284.64 138.977 270.505C144.222 272.047 148.688 273.245 154.08 274.132C185.554 279.445 217.846 271.955 243.769 253.329C280.334 227.003 303.616 177.169 294.585 132.154C290.439 111.49 280.304 95.7613 268.221 78.9821C262.664 70.9319 249.649 59.8628 241.495 54.2409C238.136 51.9256 233.444 49.1886 230.521 46.6301Z" fill="#BFE5E8"/>
<path d="M56.1993 156.115C66.3466 133.249 70.0412 120.088 90.2345 102.239C54.2137 167.293 77.3882 241.606 141.484 277.517C155.791 285.533 182.841 293.383 199.211 292.058C199.44 292.111 199.672 292.152 199.906 292.181C202.584 292.529 214.043 291.313 217.066 290.797C248.263 285.468 261.773 274.721 284.696 256.175C284.295 257.064 283.695 258.167 283.098 258.891C258.906 288.198 221.556 306.23 183.279 304.129C179.981 304.142 176.632 304.094 173.339 304.067C116.643 303.611 60.6012 255.007 52.0339 199.312C52.5129 196.233 52.0006 181.475 52.2878 176.627C52.8848 166.545 54.463 164.844 56.1993 156.115Z" fill="#09A24B"/>
<path d="M52.034 199.312L51.9727 199.161C49.0031 191.608 49.3246 183.977 49.009 176.202C48.1489 155.014 51.0855 136.771 59.793 117.14C74.2966 84.4585 101.172 58.8673 134.521 45.983C164.495 34.4494 200.908 33.4595 230.521 46.6301C233.444 49.1886 238.137 51.9256 241.495 54.2408C249.649 59.8628 262.664 70.9319 268.221 78.9821C268.646 82.0575 275.889 92.4154 277.652 96.0211C283.268 107.502 285.745 117.061 288.965 129.239C270.711 97.1969 246.197 74.9933 209.93 65.0874C178.011 56.4226 143.956 60.8157 115.28 77.2973C83.3156 95.6166 67.106 117.38 56.6825 153.185C56.4088 154.125 56.2728 155.136 56.1993 156.115C54.463 164.844 52.8848 166.545 52.2878 176.627C52.0007 181.475 52.5129 196.233 52.034 199.312Z" fill="#1E285C"/>
<path d="M944.442 215.855C953.713 193.848 978.489 142.031 989.988 117.394C990.508 117.145 990.946 116.932 991.315 116.756C993.256 118.879 996.924 151.414 997.669 156.911L1008.74 237.902L997.174 237.887C995.772 230.72 994.639 219.552 993.663 212.066C991.753 198.113 989.988 184.142 988.354 170.154C987.39 165.116 986.558 156.44 986.339 151.455C983.503 156.462 979.234 166.705 976.611 172.372L956.405 215.793C953.838 221.285 948.492 233.783 944.918 237.885L944.035 237.894C938.765 232.668 906.783 161.765 902.064 150.535C900.035 176.275 894.758 211.726 891.197 237.869L879.772 237.874L890.79 156.355C892.398 144.784 893.995 127.488 896.417 116.357C897.4 116.765 898.377 117.618 898.852 118.584C910.871 143.077 922.101 167.991 933.769 192.662C937.406 200.351 940.98 208.084 944.442 215.855Z" fill="#1E285C"/>
<path d="M1176.18 116.172C1176.3 116.234 1176.42 116.298 1176.54 116.366C1179.81 118.241 1187.4 137.481 1189.41 142.037L1208.19 184.69L1221.9 215.826C1224.81 222.427 1229.02 231.101 1230.78 237.916L1218.7 237.829C1213.7 228.335 1205.41 208.753 1201.07 198.493C1192.77 198.331 1184.22 198.398 1175.9 198.37C1168.02 198.431 1160.13 198.393 1152.25 198.254C1146.38 211.493 1140.42 224.698 1134.39 237.87L1121.12 237.835L1157.99 155.169C1160.79 148.88 1173.47 119.316 1176.18 116.172ZM1157.32 186.481C1164.17 186.174 1170.78 186.209 1177.62 186.23L1195.88 186.255C1193.79 181.797 1177.34 144.101 1176.55 143.355C1170.36 157.825 1163.95 172.201 1157.32 186.481Z" fill="#1E285C"/>
<path d="M632.03 116.457C636.067 117.805 652.205 139.132 656.631 144.342C674.659 165.576 691.616 188.23 709.951 209.188C708.167 180.501 711.366 145.551 709.382 117.053L721.219 117.015C720.806 157.245 721.125 198.156 721.213 238.433C719.929 238.162 718.458 237.715 717.607 236.66C693.432 206.697 666.521 177.079 643.391 146.411C644.117 175.929 643.51 208.194 643.573 237.892L630.997 237.9C631.761 227.759 631.385 214.263 631.379 203.891L631.341 146.17C631.341 141.902 630.897 119.519 632.03 116.457Z" fill="#1E285C"/>
<path d="M400.682 114.213C424.968 112.825 440.574 120.885 455.562 139.485C452.359 141.97 449.221 144.715 446.129 147.348C433.801 130.54 414.714 122.948 394.281 127.568C381.864 130.361 371.051 137.943 364.19 148.664C356.433 160.959 354.239 176.677 357.458 190.762C360.377 203.648 368.294 214.846 379.468 221.892C392.751 230.174 406.259 230.427 420.95 227.017C432.635 222.32 437.978 218.467 446.061 208.976C449.124 211.692 452.268 214.073 455.504 216.569C434.624 244.385 390.054 249.699 364.865 226.844C324.403 190.134 343.055 118.047 400.682 114.213Z" fill="#1E285C"/>
<path d="M1038.47 117.069L1104.22 117.018L1104.27 129.11L1050.33 129.104C1050.57 141.318 1050.36 154.277 1050.36 166.552C1068.2 166.643 1086.04 166.613 1103.88 166.461L1103.97 178.717L1070.65 178.578C1065.7 178.563 1055.36 178.251 1050.99 179.015C1050.11 180.375 1050.36 182.671 1050.37 184.383L1050.35 225.665C1068.15 225.364 1086.06 225.779 1103.96 225.435C1103.82 229.532 1103.99 233.792 1104.1 237.901C1082.69 237.499 1059.94 237.675 1038.5 237.918C1039.15 198.778 1038.85 156.257 1038.47 117.069Z" fill="#1E285C"/>
<path d="M756.242 117.07L814.007 116.982C813.876 120.932 814.014 125.17 814.07 129.142C799.353 128.76 782.94 129.075 768.105 129.083L768.117 166.599C783.385 166.632 798.652 166.589 813.913 166.468C813.851 170.497 814.051 174.735 814.176 178.777L801.97 178.611C790.702 178.568 779.435 178.608 768.167 178.734C768.061 198.46 768.104 218.186 768.28 237.912L756.086 237.897C756.649 222.665 756.349 206.367 756.349 191.024L756.242 117.07Z" fill="#1E285C"/>
<path d="M839.428 117.074L851.41 117.024C850.915 156.956 851.322 197.882 851.403 237.889L839.347 237.852C839.866 222.177 839.541 204.839 839.547 189.003L839.428 117.074Z" fill="#1E285C"/>
<path d="M1042.38 253.081C1046.09 252.647 1056.05 252.932 1058.27 256.645C1060.03 259.585 1058.93 263.871 1055.92 265.711C1054.5 265.15 1053.84 264.548 1053.08 263.101C1049.58 256.428 1041.41 254.358 1036.05 260.607C1028.2 270.254 1045.44 274.224 1050.42 278.564C1064.43 290.779 1050.93 302.694 1036.95 304.516C1032.39 304.454 1023.37 304.688 1020.72 300.37C1019.4 298.223 1020.96 292.159 1023.27 290.951C1025.37 291.304 1028.43 296.438 1031.54 298.724C1036.82 304.319 1050.3 296.108 1047.72 290.512C1042.63 279.492 1017.19 278.703 1028.84 260.316C1031.68 255.837 1036.87 254.047 1042.38 253.081Z" fill="#1E285C"/>
<path d="M1077.81 268.7C1078.73 268.629 1079.67 268.578 1080.59 268.545C1099.72 267.91 1089.98 285.484 1089.78 296.457C1089.74 298.16 1092.08 299.778 1093.31 300.909C1092.07 306.428 1084.35 304.775 1080.89 301.198C1073.88 304.249 1068.03 307.449 1061.67 301.527C1056.71 283.143 1083.83 287.599 1085.35 278.227C1085.05 276.003 1084.37 275.289 1083.06 273.52C1082.86 273.418 1081.24 272.597 1081.24 272.597C1077.74 273.113 1069.01 280.66 1065.96 277.886C1066.15 271.906 1073.17 269.862 1077.81 268.7ZM1074.63 300.444C1082.11 297.704 1088.08 286.44 1077.52 287.487C1072.9 289.411 1067.71 292.431 1069.43 298.291C1070.95 299.956 1072.4 300.358 1074.63 300.444Z" fill="#1E285C"/>
<path d="M1210.9 269.346C1232.85 268.264 1226.39 278.903 1223.72 294.248C1222.81 299.374 1225.53 298.466 1227.67 301.359C1227.54 301.888 1227.42 302.117 1227.07 302.492C1222.26 308.516 1217.68 301.425 1213.4 302.18C1205.99 303.487 1202.92 308.667 1195.84 301.689C1192.49 289.866 1203.16 286.777 1212.47 284.655C1218.03 283.388 1221.54 277.596 1216.45 273.642C1212.11 270.272 1206.56 280.768 1201.43 278.341C1200.09 272.347 1206.55 270.615 1210.9 269.346ZM1206.07 300.469C1212.55 299.544 1216.66 296.922 1217.34 289.315C1217.42 288.357 1216.68 287.723 1216.07 287.083L1215.28 286.902C1208.46 287.875 1196.79 293.781 1206.07 300.469Z" fill="#1E285C"/>
<path d="M1110.11 269.323C1114.92 269.189 1116.19 272.925 1117.22 272.442C1143.42 260.261 1137.74 280.961 1134.51 298.517L1134.66 298.639C1136.49 300.072 1137.56 300.49 1137.79 302.392C1135.58 304.728 1126.28 303.747 1122.84 303.64C1128.1 295.875 1128.35 288.539 1129.52 279.431C1129.24 274.726 1126.49 272.65 1121.8 273.998C1119.48 274.656 1117.51 276.223 1116.35 278.346C1112.82 284.824 1111.85 295.576 1113.54 302.654C1112 304.27 1100.3 304.557 1098.84 302.158C1099.57 300.237 1101.54 299.285 1103.32 298.128C1105 291.61 1106.5 284.079 1106.83 277.361C1107 274.025 1104.35 274.384 1104.6 271.515C1106.32 270.027 1107.92 269.842 1110.11 269.323Z" fill="#1E285C"/>
<path d="M1183.84 258.9L1185.5 259.936C1186.68 262.012 1186.5 265.19 1186.56 267.663C1188.82 268.385 1192.15 268.954 1192.92 271.323C1191.51 273.092 1187.2 274.113 1184.89 274.86C1183.3 279.145 1179.26 292.979 1181.67 297.767C1182.7 299.818 1187.05 298.463 1189.51 298.808L1189.91 299.781L1188.95 301.831C1167.35 313.1 1173.72 289.374 1175.23 278.207C1175.81 273.978 1169.43 273.087 1175.67 268.974C1178.1 267.364 1180.79 261.6 1183.84 258.9Z" fill="#1E285C"/>
<path d="M1154.26 269.353C1156.77 269.128 1159.62 268.628 1161.89 269.559C1162.85 271.667 1158.67 294.436 1158.23 299.127C1159.7 300.27 1160.09 300.575 1161.21 302.046L1160.89 303.211C1158.78 304.323 1154.43 304.196 1151.87 304.288C1149.5 304.382 1146.42 304.933 1144.98 302.885C1145.56 300.993 1147.7 299.718 1149.35 298.47C1150.81 294.029 1153.57 281.199 1153.32 276.2C1153.24 274.748 1150.44 274.082 1149.92 271.732C1151.38 270.041 1152 270.198 1154.26 269.353Z" fill="#1E285C"/>
<path d="M1209.46 251.549C1214.88 251.039 1216.92 253.434 1219.52 258.446C1220.65 260.641 1221.14 263.164 1220.19 265.455C1219.82 265.347 1219.45 265.22 1219.08 265.073C1216.27 263.926 1209.94 258.016 1208.84 254.981C1208.23 253.314 1208.68 253.221 1209.46 251.549Z" fill="#1E285C"/>
<path d="M1159.88 252.287C1162.09 252.37 1163.18 252.263 1164.95 253.681C1167.27 257.725 1165.29 259.506 1162.03 261.945C1159.7 261.972 1158.38 262.039 1156.54 260.599C1154.38 256.506 1156.7 254.684 1159.88 252.287Z" fill="#1E285C"/>
</svg>
