<?xml version="1.0" encoding="UTF-8"?>
<svg id="Livello_2" xmlns="http://www.w3.org/2000/svg" version="1.1" viewBox="0 0 1406.9 470.1">
  <!-- Generator: Adobe Illustrator 30.3.0, SVG Export Plug-In . SVG Version: 2.1.3 Build 182)  -->
  <g id="Livello_1-2">
    <g>
      <g>
        <path d="M95.1,394.3C19.1,352.1-14.1,255.8,5.6,172.9,32.2,54.3,154.7-25.2,273.2,7.3c26.4,7.3,51.6,20.2,71.8,38.8l-1.7,3.1c-22.6-12-47.4-19.7-72.7-22.8C136.4,8.1,18.4,122.6,31.9,257.1c4.8,50.7,28.6,99.3,65.7,134.6l-2.4,2.6h0Z" fill="#004a64"/>
        <path d="M378.6,446.8c-56.7,33.7-130.2,29.3-187-3.2-46.5-26.4-82-71.1-97.8-122.2-12.5-40.2-12.7-84-1-124.4.7-3.3,2.7-7.6,3.6-10.8,1.2-3,2.6-7.7,4-10.6,2.3-5.2,4.5-10.4,7.1-15.4,1.8-3.3,6.5-11.4,8.3-14.7,25.8-40.5,64.6-71.3,110.4-83.9,9.7-2.5,20.8-4.5,30.8-5.2l1.1,3.4c-25,8.3-48.2,21.3-68.3,38.2-108.3,91-89.7,264.2,35.2,330.4,46.3,24.6,102.2,30.1,152.5,15l1.1,3.4h0Z" fill="#0fb5c8"/>
        <path d="M502.9,318.7c-25.5,68.8-103.8,105.9-174.7,98.9-54-4.6-106.7-34.1-135.5-80.4-6.9-11-12.5-23.1-16.1-35.6-1-4.3-2.1-8.4-2.8-12.7l3.1-1.8c8.4,13.3,18.3,25.6,29.5,36.6,67.9,68.7,179.1,78.9,258.2,23.4,13-8.8,24.9-19.2,35.6-30.8l2.7,2.4h0Z" fill="#004a64"/>
      </g>
      <polygon points="338.1 253.9 338.1 171.8 306 253.9 295.4 253.9 263.2 171.8 263.2 253.9 238.9 253.9 238.9 139.8 273 139.8 300.7 210.9 328.4 139.8 362.6 139.8 362.6 253.9 338.1 253.9" fill="#004a64"/>
      <g>
        <path d="M398.3,204.8h40.7c-.5-7.9-6-18.3-20.4-18.3s-19.3,10.1-20.4,18.3M418.7,169.2c24.6,0,41.4,18.5,41.4,45.5v4.8h-61.4c1.4,10.4,9.7,19.1,23.8,19.1s16.8-3.1,22.1-8.2l9.6,14c-8.4,7.7-21.2,11.5-34,11.5-25.1,0-44.1-16.9-44.1-43.4s17.6-43.3,42.8-43.3" fill="#004a64"/>
        <path d="M529.1,197.9c-3.8-5.5-11.5-9.4-18.8-9.4-12.3,0-20.9,9.8-20.9,24.1s8.5,23.9,20.9,23.9,15-3.9,18.8-9.4v-29.2h0ZM529.1,253.9v-10.4c-6.5,8-15.6,12.5-25.5,12.5-20.9,0-36.6-15.7-36.6-43.3s15.6-43.4,36.6-43.4,19,4.3,25.5,12.6v-42.1h21.9v114.1h-21.9Z" fill="#004a64"/>
        <path d="M569.2,171.3h21.7v82.6h-21.7v-82.6ZM566.9,146.1c0-7.2,6-13,13-13s13,5.8,13,13-5.8,13-13,13-13-5.8-13-13" fill="#004a64"/>
        <path d="M647.5,169.2c16.9,0,27.2,7.4,32.7,15l-14.2,13.2c-3.9-5.6-9.9-8.9-17.4-8.9-13.2,0-22.4,9.6-22.4,23.9s9.2,24.1,22.4,24.1,13.5-3.4,17.4-8.9l14.2,13.2c-5.5,7.7-15.7,15-32.7,15-25.5,0-43.8-17.9-43.8-43.4s18.3-43.3,43.8-43.3" fill="#004a64"/>
        <path d="M740.5,223.8c-3.6-4.8-10.4-7.2-17.4-7.2s-15.6,4.6-15.6,12.5,7,12.1,15.6,12.1,13.8-2.4,17.4-7.2v-10.3h0ZM740.5,253.9v-8.6c-5.6,6.7-15.4,10.6-26.2,10.6s-28.7-8.9-28.7-27.4,15.6-26.3,28.7-26.3,20.7,3.4,26.2,10.1v-11.4c0-8.4-7.2-13.9-18.1-13.9s-17.1,3.2-24.1,9.8l-8.2-14.5c10.1-8.9,23.1-13,36.1-13,18.8,0,36.1,7.5,36.1,31.3v53.4h-21.7Z" fill="#004a64"/>
      </g>
      <rect x="780.3" y="139.8" width="21.7" height="114.1" fill="#004a64"/>
      <g>
        <path d="M826.2,219.3c8,8.4,20.5,15.4,36.2,15.4s19.8-6.3,19.8-12.8-9.9-11.5-23.1-14.5c-18.6-4.3-42.6-9.4-42.6-34.9s16.4-34.4,43.3-34.4,33.2,5.5,44.5,15.9l-13.5,17.8c-9.2-8.6-21.5-12.5-32.7-12.5s-16.8,4.8-16.8,11.6,9.6,10.1,22.7,13.2c18.8,4.3,42.8,9.9,42.8,35.2s-14.9,36.6-45.7,36.6-37.6-7.4-48.4-18.1l13.3-18.5h0Z" fill="#0fb5c8"/>
        <path d="M975.1,253.9v-10.4c-5.6,6.3-15.6,12.5-29.1,12.5s-26.7-9.9-26.7-26v-58.6h21.7v50.1c0,11.4,6,15.2,15.2,15.2s15-4.6,18.8-9.4v-55.9h21.7v82.6h-21.7Z" fill="#0fb5c8"/>
        <path d="M1055.3,188.5c-7,0-15,4.1-18.6,9.4v29.2c3.6,5.1,11.6,9.4,18.6,9.4,12.5,0,20.9-9.8,20.9-24.1s-8.4-23.9-20.9-23.9M1036.7,285.3h-21.7v-114.1h21.7v10.4c6.3-8,15.4-12.5,25.5-12.5,21.2,0,36.6,15.7,36.6,43.3s-15.4,43.4-36.6,43.4-18.8-4.1-25.5-12.6v42.1h0Z" fill="#0fb5c8"/>
        <path d="M1151.9,188.5c-7,0-15,4.1-18.6,9.4v29.2c3.6,5.1,11.6,9.4,18.6,9.4,12.5,0,20.9-9.8,20.9-24.1s-8.4-23.9-20.9-23.9M1133.3,285.3h-21.7v-114.1h21.7v10.4c6.3-8,15.4-12.5,25.5-12.5,21.2,0,36.6,15.7,36.6,43.3s-15.4,43.4-36.6,43.4-18.8-4.1-25.5-12.6v42.1h0Z" fill="#0fb5c8"/>
        <path d="M1267.7,212.5c0-12.8-7.7-23.9-21.2-23.9s-21,11.1-21,23.9,7.5,24.1,21,24.1,21.2-11.1,21.2-24.1M1202.9,212.5c0-23.4,16.4-43.3,43.6-43.3s43.8,19.8,43.8,43.3-16.4,43.4-43.8,43.4-43.6-19.8-43.6-43.4" fill="#0fb5c8"/>
        <path d="M1302.9,253.9v-82.6h21.7v11.3c5.8-7.4,16.1-13.2,26.3-13.2v21.2c-1.5-.3-3.6-.5-6-.5-7.2,0-16.8,3.9-20.4,9.2v54.6h-21.7Z" fill="#0fb5c8"/>
        <path d="M1365.4,233.3v-43.1h-13.7v-19h13.7v-22.6h21.9v22.6h16.8v19h-16.8v37.3c0,5.1,2.7,9.1,7.5,9.1s6.3-1.2,7.5-2.4l4.6,16.4c-3.2,2.9-9.1,5.3-18.1,5.3-15.2,0-23.4-7.9-23.4-22.6" fill="#0fb5c8"/>
        <path d="M1116.2,363.3h11.9c4.2,0,6.7-2.4,6.7-6.3s-2.3-6.2-6.7-6.2h-11.9v12.5h0ZM1116.2,345.5h11.7c4,0,6.2-2.5,6.2-5.8s-2.2-5.9-6.2-5.9h-11.7v11.7ZM1110.2,368.6v-40.1h18.8c7.1,0,11.3,4.4,11.3,10.2s-3.3,8.4-7,9.2c4.3.7,7.8,5,7.8,9.9s-4.2,10.8-11.6,10.8h-19.3Z" fill="#004a64"/>
        <path d="M1146.6,375.1c.7.3,1.7.5,2.4.5,2,0,3.3-.7,4.2-2.8l1.7-3.9-11.9-29.3h5.8l9.1,22.8,9.1-22.8h5.8l-14.3,34.5c-1.9,4.6-5,6.2-9.2,6.2-.9,0-2.5-.2-3.4-.4l.8-4.9h0Z" fill="#004a64"/>
      </g>
      <polygon points="1190.3 368.6 1190.3 328.5 1217.2 328.5 1217.2 333.8 1196.3 333.8 1196.3 345.5 1216.8 345.5 1216.8 350.8 1196.3 350.8 1196.3 363.3 1217.2 363.3 1217.2 368.6 1190.3 368.6" fill="#004a64"/>
      <g>
        <path d="M1223.4,360.8c2,2.2,5.8,4.1,9.7,4.1s6.2-1.7,6.2-4.1-3.3-3.8-7-4.7c-4.9-1.1-10.7-2.5-10.7-8.7s4-8.6,11-8.6,8.6,1.8,11.1,4.1l-2.4,3.8c-1.7-2-4.9-3.5-8.6-3.5s-5.9,1.4-5.9,3.8,3.1,3.4,6.7,4.2c5.1,1.1,11.1,2.5,11.1,9.2s-4.1,8.9-11.7,8.9-9.1-1.5-12.1-4.5l2.6-4h0Z" fill="#004a64"/>
        <path d="M1250.3,360.8c2,2.2,5.8,4.1,9.7,4.1s6.2-1.7,6.2-4.1-3.3-3.8-7-4.7c-4.9-1.1-10.7-2.5-10.7-8.7s4-8.6,11-8.6,8.6,1.8,11.1,4.1l-2.4,3.8c-1.7-2-4.9-3.5-8.6-3.5s-5.9,1.4-5.9,3.8,3.1,3.4,6.7,4.2c5.1,1.1,11.1,2.5,11.1,9.2s-4.1,8.9-11.7,8.9-9.1-1.5-12.1-4.5l2.6-4h0Z" fill="#004a64"/>
        <path d="M1281,351.9h17.7c-.1-3.8-2.7-8.6-8.8-8.6s-8.6,4.7-8.9,8.6M1289.9,338.9c8.7,0,14.1,6.8,14.1,15.7v1.3h-22.9c.4,4.9,4,9,9.8,9s6.4-1.2,8.6-3.4l2.5,3.5c-2.9,2.8-7,4.3-11.7,4.3-8.7,0-15-6.1-15-15.2s6.1-15.2,14.5-15.2" fill="#004a64"/>
      </g>
      <polygon points="1309.8 368.6 1309.8 328.5 1336.7 328.5 1336.7 333.8 1315.8 333.8 1315.8 345.5 1336.2 345.5 1336.2 350.8 1315.8 350.8 1315.8 363.3 1336.7 363.3 1336.7 368.6 1309.8 368.6" fill="#004a64"/>
      <g>
        <path d="M1361.9,368.6v-24.3h-4.8v-4.8h4.8v-1.9c0-6.2,3.7-9.7,8.8-9.7s3.5.4,4.8,1.1l-1.3,4c-.7-.4-1.6-.7-2.6-.7-2.7,0-4.3,1.8-4.3,5.3v1.9h5.9v4.8h-5.9v24.3h-5.4ZM1344.2,368.6v-24.3h-4.8v-4.8h4.8v-1.9c0-6.2,3.7-9.7,8.8-9.7s3.5.4,4.7,1.1l-1.3,4c-.7-.4-1.6-.7-2.6-.7-2.7,0-4.3,1.8-4.3,5.3v1.9h5.9v4.8h-5.9v24.3h-5.4Z" fill="#004a64"/>
        <path d="M1381,351.9h17.7c-.1-3.8-2.7-8.6-8.8-8.6s-8.6,4.7-8.9,8.6M1389.9,338.9c8.7,0,14.1,6.8,14.1,15.7v1.3h-22.9c.4,4.9,4,9,9.8,9s6.4-1.2,8.6-3.4l2.5,3.5c-2.9,2.8-7,4.3-11.7,4.3-8.7,0-15-6.1-15-15.2s6.1-15.2,14.5-15.2" fill="#004a64"/>
      </g>
    </g>
  </g>
</svg>