<?xml version="1.0" encoding="UTF-8"?>
<svg id="Livello_2" data-name="Livello 2" xmlns="http://www.w3.org/2000/svg" viewBox="0 0 1406.92 470.13">
  <defs>
    <style>
      .cls-1 {
        fill: #004a64;
      }

      .cls-2 {
        fill: #0fb5c8;
      }
    </style>
  </defs>
  <g id="Livello_1-2" data-name="Livello 1">
    <g>
      <g>
        <path class="cls-1" d="M95.12,394.34C19.15,352.09-14.13,255.79,5.55,172.85,32.24,54.33,154.71-25.18,273.18,7.31c26.44,7.35,51.59,20.21,71.8,38.78l-1.7,3.14c-22.62-11.98-47.38-19.74-72.67-22.84C136.39,8.08,18.44,122.61,31.87,257.15c4.78,50.71,28.59,99.27,65.68,134.58l-2.42,2.61Z"/>
        <path class="cls-2" d="M378.59,446.81c-56.74,33.71-130.19,29.32-187.04-3.19-46.52-26.43-81.99-71.08-97.85-122.2-12.48-40.24-12.69-83.97-.99-124.39.68-3.3,2.68-7.55,3.64-10.79,1.16-3.04,2.58-7.69,3.97-10.62,2.32-5.17,4.54-10.37,7.14-15.39,1.78-3.3,6.49-11.35,8.35-14.69,25.82-40.53,64.59-71.3,110.43-83.9,9.7-2.55,20.83-4.47,30.8-5.21l1.06,3.41c-24.96,8.26-48.22,21.33-68.26,38.17-108.27,91.01-89.71,264.24,35.19,330.36,46.26,24.63,102.24,30.09,152.5,15.04l1.06,3.41Z"/>
        <path class="cls-1" d="M502.87,318.74c-25.5,68.8-103.75,105.92-174.74,98.88-53.98-4.59-106.69-34.12-135.46-80.35-6.89-11.03-12.46-23.14-16.06-35.6-.96-4.31-2.08-8.41-2.75-12.68l3.06-1.83c8.38,13.33,18.32,25.65,29.5,36.64,67.86,68.68,179.13,78.86,258.21,23.38,12.96-8.82,24.92-19.17,35.56-30.79l2.68,2.36Z"/>
      </g>
      <polygon class="cls-1" points="338.11 253.86 338.11 171.78 305.96 253.86 295.36 253.86 263.21 171.78 263.21 253.86 238.93 253.86 238.93 139.8 272.96 139.8 300.66 210.94 328.36 139.8 362.56 139.8 362.56 253.86 338.11 253.86"/>
      <g>
        <path class="cls-1" d="M398.31,204.78h40.7c-.52-7.87-5.98-18.3-20.35-18.3-13.51,0-19.32,10.09-20.35,18.3M418.66,169.21c24.62,0,41.39,18.47,41.39,45.49v4.79h-61.39c1.36,10.42,9.74,19.15,23.77,19.15,7.7,0,16.76-3.08,22.06-8.2l9.58,14.02c-8.38,7.7-21.21,11.46-34.04,11.46-25.13,0-44.11-16.93-44.11-43.44,0-23.93,17.61-43.26,42.75-43.26"/>
        <path class="cls-1" d="M529.13,197.94c-3.76-5.48-11.46-9.41-18.81-9.41-12.31,0-20.87,9.75-20.87,24.11s8.55,23.93,20.87,23.93c7.35,0,15.04-3.93,18.81-9.4v-29.24ZM529.13,253.86v-10.43c-6.5,8.04-15.56,12.48-25.48,12.48-20.87,0-36.6-15.73-36.6-43.26s15.56-43.44,36.6-43.44c9.75,0,18.98,4.27,25.48,12.65v-42.06h21.88v114.05h-21.88Z"/>
        <path class="cls-1" d="M569.15,171.27h21.71v82.59h-21.71v-82.59ZM566.93,146.13c0-7.18,5.98-12.99,12.99-12.99s13,5.81,13,12.99-5.81,12.99-13,12.99-12.99-5.81-12.99-12.99"/>
        <path class="cls-1" d="M647.47,169.21c16.93,0,27.19,7.36,32.66,15.04l-14.2,13.17c-3.93-5.64-9.92-8.89-17.44-8.89-13.17,0-22.4,9.58-22.4,23.93s9.23,24.11,22.4,24.11c7.53,0,13.51-3.42,17.44-8.89l14.2,13.17c-5.48,7.7-15.73,15.04-32.66,15.04-25.48,0-43.78-17.95-43.78-43.44s18.3-43.26,43.78-43.26"/>
        <path class="cls-1" d="M740.5,223.76c-3.59-4.79-10.43-7.18-17.44-7.18-8.55,0-15.56,4.61-15.56,12.48s7.01,12.14,15.56,12.14c7.01,0,13.85-2.39,17.44-7.18v-10.26ZM740.5,253.86v-8.55c-5.64,6.67-15.39,10.6-26.16,10.6-13.16,0-28.72-8.89-28.72-27.36s15.56-26.33,28.72-26.33c10.94,0,20.69,3.42,26.16,10.09v-11.45c0-8.38-7.18-13.86-18.12-13.86-8.89,0-17.1,3.25-24.11,9.75l-8.21-14.54c10.09-8.89,23.09-12.99,36.08-12.99,18.82,0,36.08,7.53,36.08,31.29v53.35h-21.71Z"/>
      </g>
      <rect class="cls-1" x="780.35" y="139.8" width="21.71" height="114.05"/>
      <g>
        <path class="cls-2" d="M826.18,219.31c8.03,8.38,20.52,15.39,36.25,15.39,13.34,0,19.84-6.33,19.84-12.82,0-8.55-9.92-11.46-23.09-14.54-18.64-4.28-42.58-9.41-42.58-34.89,0-18.99,16.42-34.37,43.27-34.37,18.12,0,33.17,5.47,44.45,15.9l-13.51,17.78c-9.23-8.55-21.54-12.48-32.66-12.48s-16.76,4.79-16.76,11.63c0,7.7,9.58,10.09,22.74,13.17,18.81,4.27,42.75,9.92,42.75,35.22,0,20.86-14.87,36.6-45.66,36.6-21.88,0-37.62-7.36-48.4-18.13l13.34-18.47Z"/>
        <path class="cls-2" d="M975.12,253.86v-10.43c-5.64,6.33-15.56,12.48-29.07,12.48-18.12,0-26.67-9.92-26.67-25.99v-58.65h21.71v50.11c0,11.45,5.98,15.21,15.22,15.21,8.37,0,15.04-4.61,18.81-9.4v-55.92h21.71v82.59h-21.71Z"/>
        <path class="cls-2" d="M1055.33,188.54c-7.01,0-15.04,4.1-18.64,9.4v29.24c3.59,5.14,11.63,9.41,18.64,9.41,12.48,0,20.87-9.75,20.87-24.11s-8.38-23.93-20.87-23.93M1036.69,285.32h-21.71v-114.05h21.71v10.43c6.32-8.04,15.39-12.48,25.48-12.48,21.21,0,36.6,15.73,36.6,43.26s-15.39,43.44-36.6,43.44c-9.75,0-18.81-4.1-25.48-12.65v42.06Z"/>
        <path class="cls-2" d="M1151.95,188.54c-7.01,0-15.04,4.1-18.64,9.4v29.24c3.59,5.14,11.63,9.41,18.64,9.41,12.48,0,20.87-9.75,20.87-24.11s-8.38-23.93-20.87-23.93M1133.31,285.32h-21.71v-114.05h21.71v10.43c6.32-8.04,15.39-12.48,25.48-12.48,21.21,0,36.6,15.73,36.6,43.26s-15.39,43.44-36.6,43.44c-9.75,0-18.81-4.1-25.48-12.65v42.06Z"/>
        <path class="cls-2" d="M1267.71,212.48c0-12.82-7.69-23.94-21.2-23.94s-21.04,11.12-21.04,23.94,7.53,24.11,21.04,24.11,21.2-11.12,21.2-24.11M1202.91,212.48c0-23.43,16.42-43.26,43.61-43.26s43.78,19.83,43.78,43.26-16.42,43.44-43.78,43.44-43.61-19.84-43.61-43.44"/>
        <path class="cls-2" d="M1302.95,253.86v-82.59h21.71v11.29c5.81-7.36,16.08-13.17,26.34-13.17v21.21c-1.54-.34-3.59-.52-5.98-.52-7.19,0-16.76,3.94-20.36,9.24v54.55h-21.71Z"/>
        <path class="cls-2" d="M1365.37,233.34v-43.09h-13.68v-18.99h13.68v-22.57h21.88v22.57h16.76v18.99h-16.76v37.28c0,5.13,2.74,9.06,7.53,9.06,3.25,0,6.33-1.2,7.53-2.39l4.62,16.42c-3.25,2.91-9.07,5.3-18.13,5.3-15.22,0-23.43-7.87-23.43-22.57"/>
        <path class="cls-1" d="M1116.25,363.3h11.95c4.2,0,6.72-2.41,6.72-6.31,0-3.31-2.28-6.19-6.72-6.19h-11.95v12.49ZM1116.25,345.52h11.65c4.03,0,6.25-2.52,6.25-5.82s-2.22-5.88-6.25-5.88h-11.65v11.7ZM1110.24,368.58v-40.06h18.8c7.14,0,11.29,4.38,11.29,10.21,0,5.04-3.31,8.41-6.97,9.19,4.26.66,7.75,4.98,7.75,9.85,0,6.31-4.2,10.81-11.59,10.81h-19.27Z"/>
        <path class="cls-1" d="M1146.64,375.07c.66.3,1.68.48,2.4.48,1.98,0,3.31-.66,4.2-2.82l1.69-3.85-11.95-29.31h5.76l9.07,22.77,9.07-22.77h5.82l-14.29,34.54c-1.86,4.56-5.04,6.18-9.25,6.24-.91,0-2.53-.18-3.36-.42l.84-4.86Z"/>
      </g>
      <polygon class="cls-1" points="1190.3 368.58 1190.3 328.53 1217.2 328.53 1217.2 333.82 1196.31 333.82 1196.31 345.52 1216.78 345.52 1216.78 350.81 1196.31 350.81 1196.31 363.3 1217.2 363.3 1217.2 368.58 1190.3 368.58"/>
      <g>
        <path class="cls-1" d="M1223.45,360.84c1.98,2.16,5.82,4.14,9.73,4.14s6.25-1.69,6.25-4.14c0-2.88-3.31-3.84-7.03-4.69-4.92-1.14-10.69-2.46-10.69-8.7,0-4.63,3.96-8.59,11.04-8.59,4.98,0,8.59,1.8,11.05,4.14l-2.41,3.78c-1.68-2.04-4.92-3.54-8.59-3.54s-5.94,1.44-5.94,3.78c0,2.53,3.12,3.36,6.72,4.2,5.05,1.14,11.05,2.53,11.05,9.19,0,4.98-4.09,8.89-11.7,8.89-4.86,0-9.14-1.5-12.08-4.5l2.59-3.97Z"/>
        <path class="cls-1" d="M1250.35,360.84c1.98,2.16,5.82,4.14,9.73,4.14s6.25-1.69,6.25-4.14c0-2.88-3.31-3.84-7.03-4.69-4.92-1.14-10.69-2.46-10.69-8.7,0-4.63,3.96-8.59,11.04-8.59,4.98,0,8.59,1.8,11.05,4.14l-2.41,3.78c-1.68-2.04-4.92-3.54-8.59-3.54s-5.94,1.44-5.94,3.78c0,2.53,3.12,3.36,6.72,4.2,5.05,1.14,11.05,2.53,11.05,9.19,0,4.98-4.09,8.89-11.7,8.89-4.86,0-9.14-1.5-12.08-4.5l2.59-3.97Z"/>
        <path class="cls-1" d="M1281.04,351.94h17.71c-.12-3.84-2.7-8.65-8.82-8.65s-8.59,4.69-8.89,8.65M1289.93,338.86c8.7,0,14.11,6.79,14.11,15.67v1.32h-22.94c.42,4.92,4.03,9.01,9.85,9.01,3.07,0,6.43-1.2,8.59-3.42l2.52,3.54c-2.88,2.82-6.97,4.32-11.65,4.32-8.65,0-15.02-6.13-15.02-15.25,0-8.41,6.07-15.2,14.54-15.2"/>
      </g>
      <polygon class="cls-1" points="1309.75 368.58 1309.75 328.53 1336.65 328.53 1336.65 333.82 1315.76 333.82 1315.76 345.52 1336.24 345.52 1336.24 350.81 1315.76 350.81 1315.76 363.3 1336.65 363.3 1336.65 368.58 1309.75 368.58"/>
      <g>
        <path class="cls-1" d="M1361.94,368.58v-24.26h-4.81v-4.75h4.81v-1.92c0-6.25,3.66-9.73,8.83-9.73,1.86,0,3.48.36,4.75,1.08l-1.26,4.03c-.72-.42-1.63-.66-2.58-.66-2.7,0-4.32,1.8-4.32,5.28v1.92h5.88v4.75h-5.88v24.26h-5.41ZM1344.16,368.58v-24.26h-4.81v-4.75h4.81v-1.92c0-6.25,3.66-9.73,8.83-9.73,1.86,0,3.47.36,4.74,1.08l-1.26,4.03c-.72-.42-1.62-.66-2.58-.66-2.7,0-4.32,1.8-4.32,5.28v1.92h5.88v4.75h-5.88v24.26h-5.41Z"/>
        <path class="cls-1" d="M1380.98,351.94h17.72c-.13-3.84-2.7-8.65-8.83-8.65s-8.59,4.69-8.89,8.65M1389.87,338.86c8.7,0,14.11,6.79,14.11,15.67v1.32h-22.94c.42,4.92,4.03,9.01,9.85,9.01,3.07,0,6.43-1.2,8.59-3.42l2.52,3.54c-2.88,2.82-6.97,4.32-11.65,4.32-8.65,0-15.02-6.13-15.02-15.25,0-8.41,6.07-15.2,14.54-15.2"/>
      </g>
    </g>
  </g>
</svg>